<?xml version="1.0" standalone="no"?>
<!DOCTYPE svg PUBLIC "-//W3C//DTD SVG 20010904//EN"
 "http://www.w3.org/TR/2001/REC-SVG-20010904/DTD/svg10.dtd">
<svg version="1.0" xmlns="http://www.w3.org/2000/svg"
 width="456.000000pt" height="456.000000pt" viewBox="0 0 456.000000 456.000000"
 preserveAspectRatio="xMidYMid meet">
<metadata>
Created by potrace 1.14, written by Peter Selinger 2001-2017
</metadata>
<g transform="translate(0.000000,456.000000) scale(0.100000,-0.100000)"
fill="#000000" stroke="none">
<path d="M2086 4548 c-405 -35 -816 -205 -1152 -476 -433 -349 -727 -870 -816
-1446 -30 -198 -30 -494 0 -692 74 -483 284 -914 614 -1259 183 -192 381 -337
623 -455 746 -366 1612 -264 2271 268 433 349 727 870 816 1446 30 198 30 494
0 692 -74 483 -284 914 -614 1259 -183 192 -381 337 -623 455 -353 173 -728
243 -1119 208z m-141 -244 c25 -10 47 -62 40 -94 -11 -50 -51 -77 -210 -140
-84 -33 -159 -60 -168 -60 -29 0 -67 58 -67 104 0 73 25 91 230 162 93 32 142
40 175 28z m842 -25 c560 -180 1012 -569 1270 -1094 67 -138 131 -318 158
-450 16 -78 32 -235 24 -235 -3 0 -47 17 -99 38 l-94 39 -18 93 c-114 603
-572 1131 -1198 1385 -202 82 -230 104 -230 177 0 38 34 78 67 78 12 0 67 -14
120 -31z m-459 7 c19 -10 44 -45 77 -107 35 -64 72 -115 120 -165 66 -67 82
-77 256 -162 283 -137 415 -225 568 -382 239 -244 406 -549 472 -863 25 -115
31 -380 15 -584 -8 -99 -7 -113 6 -113 12 0 19 18 28 68 35 205 179 316 356
273 54 -13 134 -66 160 -107 21 -31 12 -39 -50 -50 -68 -11 -159 -45 -194 -70
-38 -30 -62 -72 -62 -112 0 -60 -30 -133 -73 -176 -87 -86 -216 -88 -311 -5
-85 75 -107 173 -81 366 21 150 16 350 -10 478 -56 278 -192 524 -409 741
-140 140 -286 238 -495 333 -211 97 -319 178 -382 289 -13 23 -27 42 -30 42
-4 0 -19 -18 -33 -41 -15 -23 -51 -63 -79 -91 l-52 -50 -70 7 c-93 8 -245 35
-245 44 0 4 30 24 68 45 141 81 229 169 290 292 33 66 81 114 113 114 11 0 32
-6 47 -14z m-1182 -387 c16 -18 19 -35 17 -106 l-2 -85 -83 -81 c-111 -109
-161 -170 -252 -307 -135 -202 -230 -419 -280 -643 l-22 -99 -85 -33 c-46 -17
-93 -36 -103 -40 -18 -8 -19 -5 -12 56 15 131 68 336 124 476 39 97 140 288
199 378 138 209 412 505 468 505 7 0 20 -9 31 -21z m413 -109 c65 -50 106 -71
192 -101 56 -20 94 -23 314 -30 138 -4 277 -13 310 -19 111 -21 243 -70 293
-109 113 -90 197 -212 210 -304 l5 -40 -129 5 c-83 4 -159 13 -213 27 -46 12
-85 20 -87 18 -15 -15 139 -111 214 -133 28 -9 52 -19 52 -24 0 -14 -108 -23
-204 -17 -170 12 -389 112 -506 232 -65 67 -106 98 -119 91 -13 -9 16 -113 47
-166 35 -60 125 -154 192 -200 184 -125 388 -176 670 -167 85 3 166 9 180 13
22 6 19 1 -19 -39 -207 -215 -641 -194 -968 47 -110 80 -227 252 -269 391 -10
33 -19 62 -21 64 -4 7 -128 -81 -172 -123 -103 -98 -141 -195 -121 -317 6 -40
9 -74 6 -76 -2 -3 -21 29 -41 70 -87 183 -84 349 10 442 48 49 85 61 234 75
63 7 126 16 140 21 28 11 33 7 -57 56 -22 13 -67 47 -100 78 -68 63 -130 171
-156 272 -9 34 -19 70 -22 80 -4 10 13 -3 37 -28 24 -26 68 -65 98 -89z m-246
-294 c3 -7 -16 -37 -45 -67 -87 -93 -124 -195 -115 -318 5 -61 3 -79 -12 -100
-63 -93 -134 -271 -165 -416 -39 -176 -44 -313 -20 -507 20 -170 9 -238 -56
-326 -59 -82 -184 -115 -276 -73 -77 35 -134 124 -134 211 -1 92 -72 148 -239
190 -55 13 -91 27 -91 35 0 20 78 85 128 107 25 12 74 23 108 26 51 4 71 0
115 -20 105 -48 158 -115 178 -223 20 -101 21 -105 38 -105 14 0 15 9 9 68
-17 181 -18 389 -2 509 30 226 129 493 253 683 92 141 273 340 309 340 7 0 14
-6 17 -14z m310 -453 c9 -44 105 -182 172 -249 34 -34 102 -86 151 -116 l89
-55 3 -128 c3 -144 -19 -261 -65 -347 -14 -25 -22 -51 -19 -57 18 -28 132 4
259 71 123 65 282 245 296 336 l6 37 59 3 c66 3 96 -11 126 -61 61 -100 -16
-243 -169 -313 -33 -15 -61 -32 -61 -36 0 -4 20 -8 45 -8 35 0 47 -5 59 -22
20 -33 90 -197 85 -202 -2 -1 -60 -27 -129 -56 -233 -98 -332 -143 -335 -154
-4 -11 -22 -247 -32 -418 -3 -54 -10 -98 -14 -98 -5 0 -9 6 -9 14 0 20 -188
578 -198 588 -5 5 -53 0 -110 -12 -158 -32 -196 -26 -239 39 -17 25 -23 48
-23 88 0 68 -18 110 -64 150 -20 18 -36 36 -36 40 0 3 10 17 21 29 l22 23 -38
18 -37 18 6 52 6 52 -67 60 c-38 33 -79 68 -92 79 l-24 19 79 79 c44 43 93
101 108 127 22 36 33 46 45 41 65 -28 122 -46 128 -41 3 4 -4 42 -17 84 -38
126 -39 382 -1 359 4 -3 11 -18 14 -33z m1856 -1140 c0 -5 -33 -59 -72 -122
-65 -103 -77 -116 -112 -127 -22 -7 -112 -35 -201 -63 -88 -28 -232 -78 -320
-112 -87 -34 -166 -63 -175 -66 -13 -4 -19 -31 -29 -141 l-12 -137 -105 -99
c-57 -54 -105 -97 -107 -95 -2 2 7 123 20 269 13 146 23 278 24 293 0 25 8 32
78 64 200 92 609 238 872 311 111 32 140 37 139 25z m-2104 -319 c175 -57 354
-136 448 -198 45 -30 61 -50 104 -128 91 -164 172 -358 118 -281 -22 31 -158
141 -250 203 -121 81 -340 173 -486 204 -22 5 -33 20 -64 92 -56 131 -66 164
-52 164 7 0 89 -25 182 -56z m-820 -98 c44 -20 85 -36 92 -36 7 0 28 -34 47
-75 102 -221 322 -484 569 -680 50 -41 94 -84 103 -104 15 -30 15 -37 -1 -76
-11 -31 -25 -48 -50 -59 -32 -16 -37 -16 -67 0 -92 47 -336 271 -468 429 -150
180 -296 444 -329 592 -9 43 -5 57 13 49 6 -3 47 -21 91 -40z m3565 -1 c0 -69
-105 -290 -212 -447 -112 -165 -325 -390 -411 -434 -71 -38 -112 3 -102 101
l5 59 124 126 c164 166 274 318 358 494 12 28 30 53 38 58 36 19 186 74 193
71 4 -2 7 -15 7 -28z m-3050 -121 c76 -11 119 -21 127 -31 14 -17 68 -178 108
-318 14 -49 28 -99 32 -110 3 -10 -35 18 -86 65 -111 101 -275 288 -336 383
l-17 27 28 0 c16 0 81 -7 144 -16z m2580 11 c0 -13 -60 -99 -133 -188 -79 -98
-255 -282 -262 -275 -2 2 7 71 21 153 13 83 23 159 22 169 -3 19 -366 -346
-822 -826 -98 -104 -181 -188 -185 -188 -3 0 -17 11 -31 23 -45 43 -604 634
-704 745 l-70 77 130 3 129 3 134 -138 c74 -76 195 -204 269 -286 75 -81 138
-146 141 -145 3 2 74 75 157 163 83 88 239 248 345 356 l194 197 97 41 c116
50 175 64 383 95 183 28 185 28 185 21z"/>
</g>
</svg>
